<svg width="118" height="32" viewBox="0 0 118 32" fill="none" xmlns="http://www.w3.org/2000/svg">
<rect width="118" height="32" rx="16" fill="#1463FF"/>
<path d="M13.4223 21V10.8182H17.151C17.8736 10.8182 18.4718 10.9375 18.9458 11.1761C19.4197 11.4115 19.7744 11.7313 20.0097 12.1357C20.245 12.5367 20.3627 12.9891 20.3627 13.4929C20.3627 13.9171 20.2848 14.2751 20.129 14.5668C19.9732 14.8551 19.7644 15.0871 19.5026 15.2628C19.2441 15.4351 18.959 15.5611 18.6475 15.6406V15.7401C18.9855 15.7566 19.3153 15.866 19.6368 16.0682C19.9616 16.267 20.2301 16.5504 20.4422 16.9183C20.6543 17.2862 20.7604 17.7337 20.7604 18.2607C20.7604 18.781 20.6378 19.2483 20.3925 19.6626C20.1505 20.0736 19.776 20.4001 19.2689 20.642C18.7618 20.8807 18.1138 21 17.325 21H13.4223ZM14.9585 19.6825H17.1759C17.9117 19.6825 18.4387 19.54 18.7568 19.255C19.075 18.9699 19.2341 18.6136 19.2341 18.1861C19.2341 17.8646 19.1529 17.5696 18.9905 17.3011C18.8281 17.0327 18.5961 16.8189 18.2945 16.6598C17.9962 16.5007 17.6415 16.4212 17.2306 16.4212H14.9585V19.6825ZM14.9585 15.223H17.0168C17.3615 15.223 17.6714 15.1567 17.9465 15.0241C18.2249 14.8916 18.4453 14.706 18.6077 14.4673C18.7734 14.2254 18.8563 13.9403 18.8563 13.6122C18.8563 13.1913 18.7088 12.8383 18.4138 12.5533C18.1188 12.2682 17.6664 12.1257 17.0566 12.1257H14.9585V15.223ZM25.7544 21.1541C25.002 21.1541 24.354 20.9934 23.8105 20.6719C23.2702 20.3471 22.8526 19.8913 22.5576 19.3047C22.266 18.7147 22.1201 18.0237 22.1201 17.2315C22.1201 16.4493 22.266 15.7599 22.5576 15.1634C22.8526 14.5668 23.2636 14.1011 23.7906 13.7663C24.3209 13.4316 24.9407 13.2642 25.6499 13.2642C26.0808 13.2642 26.4984 13.3355 26.9028 13.478C27.3071 13.6205 27.6701 13.8442 27.9916 14.1491C28.3131 14.4541 28.5666 14.8501 28.7522 15.3374C28.9378 15.8213 29.0306 16.4096 29.0306 17.1023V17.6293H22.9603V16.5156H27.574C27.574 16.1245 27.4944 15.7782 27.3353 15.4766C27.1762 15.1716 26.9525 14.9313 26.6642 14.7557C26.3791 14.58 26.0444 14.4922 25.6599 14.4922C25.2423 14.4922 24.8777 14.5949 24.5661 14.8004C24.2579 15.0026 24.0193 15.2678 23.8502 15.5959C23.6845 15.9207 23.6017 16.2737 23.6017 16.6548V17.5249C23.6017 18.0353 23.6911 18.4695 23.8701 18.8274C24.0524 19.1854 24.306 19.4588 24.6308 19.6477C24.9556 19.8333 25.3351 19.9261 25.7693 19.9261C26.051 19.9261 26.3079 19.8864 26.5399 19.8068C26.7719 19.724 26.9724 19.6013 27.1414 19.4389C27.3105 19.2765 27.4397 19.076 27.5292 18.8374L28.9362 19.0909C28.8235 19.5052 28.6213 19.8681 28.3296 20.1797C28.0413 20.4879 27.6784 20.7282 27.2409 20.9006C26.8067 21.0696 26.3112 21.1541 25.7544 21.1541ZM36.4023 15.228L35.055 15.4666C34.9986 15.2943 34.9091 15.1302 34.7865 14.9744C34.6672 14.8187 34.5048 14.6911 34.2993 14.5916C34.0938 14.4922 33.8369 14.4425 33.5287 14.4425C33.1077 14.4425 32.7564 14.5369 32.4747 14.7259C32.193 14.9115 32.0521 15.1518 32.0521 15.4467C32.0521 15.7019 32.1466 15.9074 32.3355 16.0632C32.5244 16.219 32.8293 16.3466 33.2503 16.446L34.4633 16.7244C35.166 16.8868 35.6897 17.1371 36.0344 17.4751C36.3791 17.8132 36.5514 18.2524 36.5514 18.7926C36.5514 19.25 36.4188 19.6577 36.1537 20.0156C35.8918 20.3703 35.5256 20.6487 35.055 20.8509C34.5876 21.053 34.0457 21.1541 33.4292 21.1541C32.5741 21.1541 31.8765 20.9718 31.3362 20.6072C30.796 20.2393 30.4645 19.7173 30.3419 19.0412L31.7787 18.8224C31.8682 19.197 32.0521 19.4804 32.3305 19.6726C32.6089 19.8615 32.9719 19.956 33.4193 19.956C33.9065 19.956 34.296 19.8549 34.5876 19.6527C34.8793 19.4472 35.0251 19.197 35.0251 18.902C35.0251 18.6634 34.9356 18.4628 34.7567 18.3004C34.581 18.138 34.3109 18.0154 33.9463 17.9325L32.6537 17.6491C31.9411 17.4867 31.4141 17.2282 31.0727 16.8736C30.7346 16.5189 30.5656 16.0698 30.5656 15.5263C30.5656 15.0755 30.6916 14.6811 30.9434 14.343C31.1953 14.005 31.5434 13.7415 31.9875 13.5526C32.4316 13.3603 32.9404 13.2642 33.5138 13.2642C34.339 13.2642 34.9887 13.4432 35.4626 13.8011C35.9366 14.1558 36.2498 14.6314 36.4023 15.228ZM41.7504 13.3636V14.5568H37.5793V13.3636H41.7504ZM38.6979 11.5341H40.1844V18.7578C40.1844 19.0462 40.2275 19.2633 40.3137 19.4091C40.3998 19.5516 40.5109 19.6494 40.6468 19.7024C40.786 19.7521 40.9368 19.777 41.0992 19.777C41.2185 19.777 41.3229 19.7687 41.4124 19.7521C41.5019 19.7356 41.5715 19.7223 41.6212 19.7124L41.8896 20.9403C41.8035 20.9735 41.6808 21.0066 41.5218 21.0398C41.3627 21.0762 41.1638 21.0961 40.9252 21.0994C40.5341 21.1061 40.1695 21.0365 39.8314 20.8906C39.4933 20.7448 39.2199 20.5194 39.0111 20.2145C38.8023 19.9096 38.6979 19.5268 38.6979 19.0661V11.5341ZM56.0637 15.9091C56.0637 16.9962 55.8648 17.9309 55.4671 18.7131C55.0693 19.492 54.5241 20.0919 53.8314 20.5128C53.142 20.9304 52.3582 21.1392 51.4798 21.1392C50.5982 21.1392 49.8111 20.9304 49.1183 20.5128C48.4289 20.0919 47.8854 19.4903 47.4877 18.7081C47.0899 17.9259 46.8911 16.9929 46.8911 15.9091C46.8911 14.822 47.0899 13.889 47.4877 13.1101C47.8854 12.3279 48.4289 11.728 49.1183 11.3104C49.8111 10.8894 50.5982 10.679 51.4798 10.679C52.3582 10.679 53.142 10.8894 53.8314 11.3104C54.5241 11.728 55.0693 12.3279 55.4671 13.1101C55.8648 13.889 56.0637 14.822 56.0637 15.9091ZM54.5423 15.9091C54.5423 15.0805 54.4081 14.3828 54.1396 13.8161C53.8745 13.246 53.5099 12.8151 53.0459 12.5234C52.5852 12.2285 52.0632 12.081 51.4798 12.081C50.8932 12.081 50.3695 12.2285 49.9088 12.5234C49.4481 12.8151 49.0835 13.246 48.8151 13.8161C48.5499 14.3828 48.4173 15.0805 48.4173 15.9091C48.4173 16.7377 48.5499 17.437 48.8151 18.0071C49.0835 18.5739 49.4481 19.0047 49.9088 19.2997C50.3695 19.5914 50.8932 19.7372 51.4798 19.7372C52.0632 19.7372 52.5852 19.5914 53.0459 19.2997C53.5099 19.0047 53.8745 18.5739 54.1396 18.0071C54.4081 17.437 54.5423 16.7377 54.5423 15.9091ZM61.4939 13.3636V14.5568H57.1785V13.3636H61.4939ZM58.3618 21V12.4787C58.3618 12.0014 58.4662 11.6053 58.675 11.2905C58.8838 10.9723 59.1605 10.7353 59.5052 10.5795C59.8499 10.4205 60.2245 10.3409 60.6288 10.3409C60.9271 10.3409 61.1823 10.3658 61.3944 10.4155C61.6066 10.4619 61.764 10.505 61.8667 10.5447L61.5187 11.7479C61.4491 11.728 61.3596 11.7048 61.2503 11.6783C61.1409 11.6484 61.0083 11.6335 60.8525 11.6335C60.4913 11.6335 60.2327 11.723 60.077 11.902C59.9245 12.081 59.8483 12.3395 59.8483 12.6776V21H58.3618ZM66.6618 13.3636V14.5568H62.3465V13.3636H66.6618ZM63.5297 21V12.4787C63.5297 12.0014 63.6341 11.6053 63.843 11.2905C64.0518 10.9723 64.3285 10.7353 64.6732 10.5795C65.0179 10.4205 65.3924 10.3409 65.7968 10.3409C66.0951 10.3409 66.3503 10.3658 66.5624 10.4155C66.7745 10.4619 66.932 10.505 67.0347 10.5447L66.6867 11.7479C66.6171 11.728 66.5276 11.7048 66.4182 11.6783C66.3089 11.6484 66.1763 11.6335 66.0205 11.6335C65.6592 11.6335 65.4007 11.723 65.2449 11.902C65.0925 12.081 65.0162 12.3395 65.0162 12.6776V21H63.5297ZM71.186 21.1541C70.4336 21.1541 69.7857 20.9934 69.2421 20.6719C68.7019 20.3471 68.2842 19.8913 67.9893 19.3047C67.6976 18.7147 67.5518 18.0237 67.5518 17.2315C67.5518 16.4493 67.6976 15.7599 67.9893 15.1634C68.2842 14.5668 68.6952 14.1011 69.2222 13.7663C69.7525 13.4316 70.3723 13.2642 71.0816 13.2642C71.5125 13.2642 71.9301 13.3355 72.3344 13.478C72.7388 13.6205 73.1017 13.8442 73.4232 14.1491C73.7447 14.4541 73.9983 14.8501 74.1839 15.3374C74.3695 15.8213 74.4623 16.4096 74.4623 17.1023V17.6293H68.392V16.5156H73.0056C73.0056 16.1245 72.926 15.7782 72.767 15.4766C72.6079 15.1716 72.3841 14.9313 72.0958 14.7557C71.8108 14.58 71.476 14.4922 71.0915 14.4922C70.6739 14.4922 70.3093 14.5949 69.9978 14.8004C69.6895 15.0026 69.4509 15.2678 69.2819 15.5959C69.1162 15.9207 69.0333 16.2737 69.0333 16.6548V17.5249C69.0333 18.0353 69.1228 18.4695 69.3018 18.8274C69.484 19.1854 69.7376 19.4588 70.0624 19.6477C70.3872 19.8333 70.7667 19.9261 71.2009 19.9261C71.4826 19.9261 71.7395 19.8864 71.9715 19.8068C72.2035 19.724 72.404 19.6013 72.5731 19.4389C72.7421 19.2765 72.8714 19.076 72.9608 18.8374L74.3678 19.0909C74.2551 19.5052 74.0529 19.8681 73.7613 20.1797C73.4729 20.4879 73.11 20.7282 72.6725 20.9006C72.2383 21.0696 71.7428 21.1541 71.186 21.1541ZM76.1116 21V13.3636H77.5484V14.5767H77.6279C77.7671 14.1657 78.0124 13.8426 78.3637 13.6072C78.7184 13.3686 79.1194 13.2493 79.5669 13.2493C79.6597 13.2493 79.769 13.2526 79.895 13.2592C80.0242 13.2659 80.1253 13.2741 80.1982 13.2841V14.706C80.1386 14.6894 80.0325 14.6712 79.8801 14.6513C79.7276 14.6281 79.5751 14.6165 79.4227 14.6165C79.0713 14.6165 78.7581 14.6911 78.483 14.8402C78.2113 14.986 77.9958 15.1899 77.8367 15.4517C77.6776 15.7102 77.5981 16.0052 77.5981 16.3366V21H76.1116ZM87.2069 15.228L85.8596 15.4666C85.8033 15.2943 85.7138 15.1302 85.5912 14.9744C85.4719 14.8187 85.3095 14.6911 85.104 14.5916C84.8985 14.4922 84.6416 14.4425 84.3334 14.4425C83.9124 14.4425 83.5611 14.5369 83.2794 14.7259C82.9977 14.9115 82.8568 15.1518 82.8568 15.4467C82.8568 15.7019 82.9513 15.9074 83.1402 16.0632C83.3291 16.219 83.634 16.3466 84.055 16.446L85.268 16.7244C85.9707 16.8868 86.4943 17.1371 86.839 17.4751C87.1837 17.8132 87.3561 18.2524 87.3561 18.7926C87.3561 19.25 87.2235 19.6577 86.9584 20.0156C86.6965 20.3703 86.3303 20.6487 85.8596 20.8509C85.3923 21.053 84.8504 21.1541 84.2339 21.1541C83.3788 21.1541 82.6811 20.9718 82.1409 20.6072C81.6006 20.2393 81.2692 19.7173 81.1466 19.0412L82.5834 18.8224C82.6729 19.197 82.8568 19.4804 83.1352 19.6726C83.4136 19.8615 83.7765 19.956 84.224 19.956C84.7112 19.956 85.1006 19.8549 85.3923 19.6527C85.684 19.4472 85.8298 19.197 85.8298 18.902C85.8298 18.6634 85.7403 18.4628 85.5613 18.3004C85.3857 18.138 85.1156 18.0154 84.751 17.9325L83.4584 17.6491C82.7458 17.4867 82.2188 17.2282 81.8774 16.8736C81.5393 16.5189 81.3703 16.0698 81.3703 15.5263C81.3703 15.0755 81.4962 14.6811 81.7481 14.343C82 14.005 82.348 13.7415 82.7922 13.5526C83.2363 13.3603 83.7451 13.2642 84.3184 13.2642C85.1437 13.2642 85.7934 13.4432 86.2673 13.8011C86.7413 14.1558 87.0545 14.6314 87.2069 15.228ZM91.6963 21.98H105.696V7.98H91.6963V21.98Z" fill="white"/>
</svg>
