<svg width="28" height="34" viewBox="0 0 28 34" fill="none" xmlns="http://www.w3.org/2000/svg">
<path d="M9.00016 5.33333H5.66683C3.82588 5.33333 2.3335 6.82572 2.3335 8.66667V28.6667C2.3335 30.5076 3.82588 32 5.66683 32H22.3335C24.1744 32 25.6668 30.5076 25.6668 28.6667V8.66667C25.6668 6.82572 24.1744 5.33333 22.3335 5.33333H19.0002M9.00016 5.33333C9.00016 7.17428 10.4925 8.66667 12.3335 8.66667H15.6668C17.5078 8.66667 19.0002 7.17428 19.0002 5.33333M9.00016 5.33333C9.00016 3.49238 10.4925 2 12.3335 2H15.6668C17.5078 2 19.0002 3.49238 19.0002 5.33333M14.0002 17H19.0002M14.0002 23.6667H19.0002M9.00016 17H9.01683M9.00016 23.6667H9.01683" stroke="white" stroke-width="3" stroke-linecap="round"/>
</svg>
