<svg width="98" height="30" viewBox="0 0 98 30" fill="none" xmlns="http://www.w3.org/2000/svg">
<path d="M28.2895 21.2616C28.1374 20.896 27.9948 20.5116 27.8428 20.1835L27.1395 18.6178L27.111 18.5897C25.0201 14.0897 22.7866 9.51472 20.4201 5.01472L20.3251 4.82722C20.0875 4.38659 19.8499 3.89909 19.6028 3.44909C19.2987 2.91472 19.004 2.34284 18.5193 1.79909C18.0469 1.23015 17.4522 0.77177 16.7784 0.45702C16.1045 0.14227 15.3682 -0.0209961 14.6227 -0.0209961C13.8771 -0.0209961 13.1408 0.14227 12.4669 0.45702C11.7931 0.77177 11.1985 1.23015 10.726 1.79909C10.2793 2.34284 9.94668 2.91472 9.64255 3.44909C9.40495 3.93659 9.16735 4.41472 8.92024 4.85534L8.8252 5.04284C6.49671 9.54284 4.22525 14.1178 2.13436 18.6178L2.07733 18.6741C1.86825 19.1616 1.62114 19.6678 1.38354 20.2116C1.23148 20.5397 1.07941 20.896 0.927346 21.2897C0.516802 22.3208 0.385703 23.4396 0.546968 24.5358C0.708233 25.632 1.1563 26.6679 1.847 27.5414C2.5377 28.4148 3.4472 29.0956 4.48587 29.5167C5.52454 29.9378 6.65652 30.0847 7.77025 29.9428C8.838 29.8042 9.86615 29.4534 10.7925 28.9116C12.0281 28.2272 13.2161 27.2335 14.5466 25.7991C15.8772 27.2335 17.0937 28.2272 18.3007 28.921C19.4615 29.593 20.7759 29.9639 22.1214 29.9991C23.6794 30.0055 25.1872 29.4556 26.3663 28.451C27.5454 27.4464 28.3163 26.0549 28.5366 24.5335C28.7911 23.4401 28.705 22.2965 28.2895 21.2522V21.2616ZM14.6417 22.8178C13.007 20.7553 11.9425 18.8616 11.5814 17.2397C11.4317 16.6387 11.3995 16.0151 11.4863 15.4022C11.5529 14.9241 11.7334 14.5022 11.9805 14.146C12.5508 13.3303 13.5487 12.8241 14.6417 12.8241C15.1607 12.8085 15.6756 12.9202 16.1401 13.1493C16.6045 13.3783 17.0041 13.7176 17.3028 14.1366C17.5499 14.5116 17.7305 14.9241 17.7875 15.4022C17.8825 15.946 17.8445 16.5741 17.6925 17.2397C17.3313 18.8335 16.2669 20.746 14.6417 22.8178ZM26.7498 24.2053C26.6418 24.9778 26.3305 25.7088 25.847 26.3257C25.3634 26.9425 24.7244 27.4236 23.9936 27.721C23.2713 28.021 22.473 28.1053 21.6937 28.021C20.9333 27.9272 20.173 27.6835 19.3937 27.2335C18.0997 26.4446 16.9362 25.4644 15.9437 24.3272C17.9396 21.8897 19.1466 19.6678 19.6028 17.6897C19.8214 16.7522 19.8499 15.9085 19.7548 15.1303C19.6362 14.3928 19.3574 13.6893 18.9375 13.0678C18.4581 12.394 17.8182 11.8467 17.0742 11.474C16.3301 11.1013 15.5046 10.9146 14.6702 10.9303C12.9119 10.9303 11.3438 11.7366 10.3934 13.0585C9.96553 13.6783 9.68903 14.3875 9.58552 15.1303C9.46197 15.9178 9.49048 16.7897 9.73759 17.6897C10.1938 19.6678 11.4293 21.9178 13.3966 24.346C12.421 25.5049 11.2548 26.4937 9.94668 27.271C9.15784 27.721 8.40702 27.9553 7.6467 28.0491C6.46429 28.1985 5.26988 27.8815 4.3231 27.167C3.37632 26.4525 2.75369 25.3983 2.59055 24.2335C2.49551 23.4835 2.56204 22.7335 2.86617 21.8897C2.96121 21.5897 3.10377 21.2897 3.25584 20.9335C3.46492 20.446 3.71203 19.9397 3.94963 19.4335L3.98765 19.3678C6.04052 14.896 8.28347 10.3303 10.612 5.85847L10.707 5.67097C10.9446 5.22097 11.1822 4.74284 11.4293 4.29284C11.6764 3.81472 11.9425 3.35534 12.2847 2.98034C12.5808 2.63161 12.9509 2.35116 13.3688 2.15873C13.7867 1.96631 14.2423 1.86658 14.7034 1.86658C15.1646 1.86658 15.6202 1.96631 16.0381 2.15873C16.456 2.35116 16.8261 2.63161 17.1222 2.98034C17.4549 3.35534 17.7305 3.81472 17.9776 4.29284C18.2152 4.74284 18.4528 5.23034 18.6999 5.67097L18.7949 5.85847C21.1139 10.3303 23.3569 14.896 25.4478 19.3678L25.4763 19.396C25.7234 19.8835 25.9325 20.4272 26.1701 20.896C26.3221 21.2616 26.4742 21.5522 26.5692 21.8616C26.7498 22.7053 26.8449 23.4553 26.7498 24.2053ZM39.9794 22.6116C39.2633 22.6219 38.5539 22.4731 37.904 22.1761C37.2542 21.8791 36.6804 21.4416 36.2253 20.896C35.2028 19.7334 34.6601 18.2345 34.7047 16.696C34.689 15.124 35.2493 13.5993 36.2824 12.4022C36.7602 11.8497 37.3551 11.4072 38.025 11.1059C38.695 10.8046 39.4238 10.6519 40.16 10.6585C40.8528 10.6398 41.539 10.7952 42.1542 11.11C42.7693 11.4249 43.2932 11.8889 43.6765 12.4585L43.7715 10.9866H46.5467V22.3116H43.762L43.667 20.6616C43.2718 21.2697 42.7256 21.7681 42.0802 22.1094C41.4348 22.4507 40.7116 22.6235 39.9794 22.6116ZM40.7017 19.9116C41.253 19.9116 41.7377 19.7616 42.1939 19.4897C42.6121 19.1897 42.9542 18.796 43.2203 18.3178C43.4579 17.8397 43.5815 17.2678 43.5815 16.6303C43.6185 16.0767 43.5093 15.523 43.2644 15.0234C43.0195 14.5238 42.6474 14.0955 42.1844 13.7803C41.7395 13.5069 41.2259 13.362 40.7017 13.362C40.1776 13.362 39.664 13.5069 39.2191 13.7803C38.8009 14.0803 38.4588 14.4741 38.1927 14.9522C37.9413 15.4795 37.8177 16.0572 37.8315 16.6397C37.7945 17.1934 37.9037 17.7471 38.1486 18.2467C38.3935 18.7462 38.7656 19.1745 39.2286 19.4897C39.6753 19.7616 40.16 19.9116 40.7017 19.9116ZM51.2987 7.93034C51.2987 8.25847 51.2417 8.55847 51.0897 8.80222C50.9376 9.03659 50.7285 9.25222 50.4529 9.40222C50.1773 9.55222 49.8826 9.60847 49.5785 9.60847C49.2744 9.60847 48.9703 9.55222 48.6946 9.40222C48.434 9.25907 48.2148 9.05252 48.0579 8.80222C47.9107 8.53516 47.8385 8.23415 47.8488 7.93034C47.8488 7.59284 47.9153 7.29284 48.0579 7.05847C48.2099 6.77722 48.4285 6.60847 48.6946 6.45847C48.9703 6.30847 49.2649 6.24284 49.5785 6.24284C49.881 6.23597 50.1802 6.30664 50.4467 6.44796C50.7133 6.58928 50.9381 6.79641 51.0992 7.04909C51.2375 7.32242 51.306 7.62494 51.2987 7.93034ZM48.0674 22.2741V10.9678H51.0897V22.2928H48.0579L48.0674 22.2741ZM59.1681 13.9303V13.9678C59.0255 13.9022 58.8354 13.8741 58.6929 13.846C58.5028 13.8085 58.3507 13.8085 58.1702 13.8085C57.3243 13.8085 56.6875 14.0522 56.2694 14.5585C55.8132 15.0741 55.6041 15.796 55.6041 16.7241V22.2835H52.5723V10.9585H55.357L55.452 12.6741C55.7561 12.0741 56.1173 11.6241 56.6305 11.2866C57.141 10.9587 57.742 10.7949 58.3507 10.8178C58.5693 10.8178 58.7784 10.8366 58.959 10.8741C59.054 10.9022 59.1111 10.9022 59.1681 10.9303V13.9303ZM60.3846 22.2741V6.31784H63.4069V12.4116C63.8346 11.8678 64.3193 11.446 64.9275 11.1178C65.8905 10.6521 66.9844 10.52 68.0328 10.7428C69.0812 10.9657 70.0229 11.5304 70.706 12.346C71.7308 13.5109 72.2737 15.0136 72.2266 16.5553C72.2423 18.1273 71.6821 19.6521 70.649 20.8491C70.1711 21.4016 69.5762 21.8441 68.9063 22.1454C68.2363 22.4467 67.5076 22.5994 66.7713 22.5928C66.0785 22.6115 65.3923 22.4562 64.7772 22.1413C64.162 21.8264 63.6382 21.3624 63.2548 20.7928L63.1598 22.2647L60.3846 22.2928V22.2741ZM66.2296 19.9116C66.7713 19.9116 67.256 19.7616 67.7122 19.4897C68.1304 19.1897 68.4725 18.796 68.7387 18.3178C68.9858 17.8397 69.0998 17.2678 69.0998 16.6303C69.0998 16.0022 68.9858 15.4303 68.7387 14.9522C68.4891 14.4912 68.1384 14.0909 67.7122 13.7803C67.2674 13.5069 66.7537 13.362 66.2296 13.362C65.7055 13.362 65.1918 13.5069 64.747 13.7803C64.3193 14.0803 63.9866 14.4741 63.711 14.9522C63.4597 15.4795 63.336 16.0572 63.3499 16.6397C63.3128 17.1934 63.4221 17.7471 63.667 18.2467C63.9119 18.7462 64.284 19.1745 64.747 19.4897C65.1936 19.7616 65.6784 19.9116 66.2296 19.9116ZM73.3671 22.2835V10.9585H76.1518L76.2468 12.4303C76.5968 11.8661 77.0932 11.4044 77.6847 11.0929C78.2762 10.7814 78.9413 10.6314 79.6113 10.6585C80.3774 10.6454 81.1304 10.8555 81.7761 11.2623C82.4219 11.6692 82.9317 12.2548 83.2418 12.946C83.5745 13.6585 83.755 14.5397 83.755 15.5241V22.3116H80.7233V15.9178C80.7233 15.1303 80.5427 14.5116 80.1815 14.0522C79.8204 13.6022 79.3262 13.3585 78.6989 13.3585C78.2427 13.3585 77.8435 13.4522 77.4919 13.6585C77.1592 13.8741 76.8836 14.146 76.6745 14.5303C76.4631 14.9189 76.3583 15.3552 76.3704 15.796V22.2835H73.3671ZM85.2662 22.2835V6.30847H88.298V12.4022C88.7086 11.8554 89.2428 11.4106 89.8582 11.103C90.4736 10.7955 91.1531 10.6336 91.843 10.6303C92.5591 10.62 93.2685 10.7689 93.9184 11.0659C94.5682 11.3629 95.142 11.8004 95.5971 12.346C96.6146 13.5108 97.1536 15.009 97.1082 16.546C97.1247 18.1181 96.5644 19.6431 95.5305 20.8397C95.0527 21.3923 94.4578 21.8348 93.7879 22.136C93.1179 22.4373 92.3892 22.59 91.6529 22.5835C90.9601 22.6022 90.2739 22.4468 89.6587 22.1319C89.0436 21.817 88.5197 21.353 88.1364 20.7835L88.0509 22.2553L85.2662 22.2835ZM91.1397 19.9116C91.6909 19.9116 92.1756 19.7616 92.6223 19.4897C93.05 19.1897 93.3826 18.796 93.6582 18.3178C93.8958 17.8397 94.0194 17.2678 94.0194 16.6303C94.0564 16.0767 93.9472 15.523 93.7023 15.0234C93.4574 14.5238 93.0853 14.0955 92.6223 13.7803C92.1775 13.5069 91.6638 13.362 91.1397 13.362C90.6155 13.362 90.1019 13.5069 89.657 13.7803C89.2389 14.0803 88.8967 14.4741 88.6306 14.9522C88.3653 15.4748 88.2409 16.056 88.2695 16.6397C88.2324 17.1934 88.3417 17.7471 88.5866 18.2467C88.8314 18.7462 89.2036 19.1745 89.6665 19.4897C90.1132 19.7616 90.5694 19.9116 91.1397 19.9116Z" fill="#FF385C"/>
</svg>
