<svg width="50" height="50" viewBox="0 0 50 50" fill="none" xmlns="http://www.w3.org/2000/svg">
<rect width="50" height="50" rx="25" fill="#1D1E25"/>
<path fill-rule="evenodd" clip-rule="evenodd" d="M25.2634 18.9638C25.6149 18.6123 26.1847 18.6123 26.5362 18.9638L31.9362 24.3638C32.2877 24.7153 32.2877 25.2851 31.9362 25.6366L26.5362 31.0366C26.1847 31.3881 25.6149 31.3881 25.2634 31.0366C24.9119 30.6851 24.9119 30.1153 25.2634 29.7638L29.127 25.9002L18.6998 25.9002C18.2027 25.9002 17.7998 25.4973 17.7998 25.0002C17.7998 24.5031 18.2027 24.1002 18.6998 24.1002H29.127L25.2634 20.2366C24.9119 19.8851 24.9119 19.3153 25.2634 18.9638Z" fill="white"/>
</svg>
