<svg width="22" height="19" viewBox="0 0 22 19" fill="none" xmlns="http://www.w3.org/2000/svg">
<path d="M14.6002 3.9999C14.6002 5.98813 12.9884 7.5999 11.0002 7.5999C9.01197 7.5999 7.4002 5.98813 7.4002 3.9999C7.4002 2.01168 9.01197 0.399902 11.0002 0.399902C12.9884 0.399902 14.6002 2.01168 14.6002 3.9999Z" fill="white"/>
<path d="M20.6002 6.3999C20.6002 7.72539 19.5257 8.7999 18.2002 8.7999C16.8747 8.7999 15.8002 7.72539 15.8002 6.3999C15.8002 5.07442 16.8747 3.9999 18.2002 3.9999C19.5257 3.9999 20.6002 5.07442 20.6002 6.3999Z" fill="white"/>
<path d="M15.8002 14.7999C15.8002 12.1489 13.6512 9.9999 11.0002 9.9999C8.34923 9.9999 6.2002 12.1489 6.2002 14.7999V18.3999H15.8002V14.7999Z" fill="white"/>
<path d="M6.2002 6.3999C6.2002 7.72539 5.12568 8.7999 3.8002 8.7999C2.47471 8.7999 1.4002 7.72539 1.4002 6.3999C1.4002 5.07442 2.47471 3.9999 3.8002 3.9999C5.12568 3.9999 6.2002 5.07442 6.2002 6.3999Z" fill="white"/>
<path d="M18.2002 18.3999V14.7999C18.2002 13.5349 17.874 12.3461 17.3011 11.3131C17.5885 11.2392 17.8897 11.1999 18.2002 11.1999C20.1884 11.1999 21.8002 12.8117 21.8002 14.7999V18.3999H18.2002Z" fill="white"/>
<path d="M4.69931 11.3131C4.12641 12.3461 3.8002 13.5349 3.8002 14.7999V18.3999H0.200195V14.7999C0.200195 12.8117 1.81197 11.1999 3.8002 11.1999C4.11065 11.1999 4.41192 11.2392 4.69931 11.3131Z" fill="white"/>
</svg>
