<svg width="32" height="32" viewBox="0 0 32 32" fill="none" xmlns="http://www.w3.org/2000/svg">
<path opacity="0.1" fill-rule="evenodd" clip-rule="evenodd" d="M0 16.0002C0 7.16369 7.16344 0.000244141 16 0.000244141C24.8366 0.000244141 32 7.16369 32 16.0002C32 24.8368 24.8366 32.0002 16 32.0002C7.16344 32.0002 0 24.8368 0 16.0002Z" fill="#161A34"/>
<path d="M11.546 9.88204C11.5224 8.81385 10.7586 8.00024 9.51815 8.00024C8.27774 8.00024 7.4668 8.81385 7.4668 9.88204C7.4668 10.9281 8.25377 11.7651 9.47108 11.7651H9.49426C10.7586 11.7651 11.546 10.9281 11.546 9.88204Z" fill="#161A34"/>
<path d="M11.3072 13.2522H7.68121V24.1467H11.3072V13.2522Z" fill="#161A34"/>
<path d="M20.2089 12.9963C22.5949 12.9963 24.3837 14.5538 24.3837 17.9001L24.3836 24.1466H20.7578V18.3181C20.7578 16.8541 20.2331 15.8551 18.9205 15.8551C17.9187 15.8551 17.3221 16.5286 17.06 17.179C16.9641 17.4121 16.9406 17.737 16.9406 18.0626V24.1469H13.3142C13.3142 24.1469 13.362 14.2747 13.3142 13.2525H16.9406V14.7956C17.4218 14.0538 18.2838 12.9963 20.2089 12.9963Z" fill="#161A34"/>
</svg>
