<svg width="32" height="32" viewBox="0 0 32 32" fill="none" xmlns="http://www.w3.org/2000/svg">
<path opacity="0.1" fill-rule="evenodd" clip-rule="evenodd" d="M0 16.0002C0 7.16369 7.16344 0.000244141 16 0.000244141C24.8366 0.000244141 32 7.16369 32 16.0002C32 24.8368 24.8366 32.0002 16 32.0002C7.16344 32.0002 0 24.8368 0 16.0002Z" fill="#161A34"/>
<path fill-rule="evenodd" clip-rule="evenodd" d="M15.5208 13.0053L15.5544 13.559L14.9948 13.4912C12.9579 13.2313 11.1784 12.35 9.66756 10.8699L8.92891 10.1355L8.73865 10.6778C8.33575 11.8868 8.59316 13.1635 9.43253 14.0222C9.8802 14.4968 9.77948 14.5646 9.00725 14.2821C8.73865 14.1917 8.50363 14.1239 8.48124 14.1578C8.4029 14.2369 8.6715 15.2651 8.88414 15.6718C9.17513 16.2368 9.76828 16.7904 10.4174 17.1181L10.9658 17.3779L10.3167 17.3892C9.68994 17.3892 9.66756 17.4005 9.73471 17.6378C9.95854 18.3722 10.8427 19.1518 11.8276 19.4908L12.5214 19.7281L11.9171 20.0896C11.0218 20.6094 9.96973 20.9031 8.91772 20.9257C8.41409 20.937 8 20.9822 8 21.0161C8 21.1291 9.36538 21.7618 10.16 22.0104C12.5438 22.7448 15.3753 22.4285 17.5017 21.1743C19.0126 20.2817 20.5235 18.5078 21.2286 16.7904C21.6091 15.8752 21.9896 14.203 21.9896 13.4008C21.9896 12.8811 22.0232 12.8133 22.6499 12.1918C23.0192 11.8303 23.3662 11.4348 23.4333 11.3218C23.5452 11.1072 23.534 11.1072 22.9633 11.2992C22.012 11.6382 21.8777 11.593 22.3477 11.0846C22.6947 10.723 23.1088 10.0677 23.1088 9.8756C23.1088 9.84171 22.9409 9.8982 22.7506 9.99989C22.5492 10.1129 22.1015 10.2824 21.7658 10.384L21.1614 10.5761L20.613 10.2033C20.3108 9.99989 19.8856 9.77392 19.6617 9.70612C19.0909 9.54794 18.218 9.57054 17.7032 9.75132C16.3042 10.2598 15.4201 11.5704 15.5208 13.0053Z" fill="#161A34"/>
</svg>
