<svg width="18" height="17" viewBox="0 0 18 17" fill="none" xmlns="http://www.w3.org/2000/svg">
<path d="M4.54597 1.88204C4.52244 0.813846 3.75857 0.000244141 2.51815 0.000244141C1.27774 0.000244141 0.466797 0.813846 0.466797 1.88204C0.466797 2.92811 1.25377 3.76514 2.47108 3.76514H2.49426C3.75857 3.76514 4.54597 2.92811 4.54597 1.88204Z" fill="#161A34"/>
<path d="M4.30716 5.2522H0.681213V16.1467H4.30716V5.2522Z" fill="#161A34"/>
<path d="M13.2089 4.99634C15.5949 4.99634 17.3837 6.55377 17.3837 9.90008L17.3836 16.1466H13.7578V10.3181C13.7578 8.85408 13.2331 7.85508 11.9205 7.85508C10.9187 7.85508 10.3221 8.52855 10.06 9.17903C9.96413 9.41215 9.94059 9.73695 9.94059 10.0626V16.1469H6.31421C6.31421 16.1469 6.362 6.27473 6.31421 5.25245H9.94059V6.79556C10.4218 6.05376 11.2838 4.99634 13.2089 4.99634Z" fill="#161A34"/>
</svg>
