<svg width="20" height="19" viewBox="0 0 20 19" fill="none" xmlns="http://www.w3.org/2000/svg">
<path fill-rule="evenodd" clip-rule="evenodd" d="M1.5999 0.600098C0.937161 0.600098 0.399902 1.13736 0.399902 1.8001C0.399902 2.46284 0.937161 3.0001 1.5999 3.0001V12.6001C1.5999 13.9256 2.67442 15.0001 3.9999 15.0001H7.10285L5.55137 16.5516C5.08274 17.0202 5.08274 17.78 5.55137 18.2486C6.02 18.7173 6.7798 18.7173 7.24843 18.2486L9.9999 15.4972L12.7514 18.2486C13.22 18.7173 13.9798 18.7173 14.4484 18.2486C14.9171 17.78 14.9171 17.0202 14.4484 16.5516L12.897 15.0001H15.9999C17.3254 15.0001 18.3999 13.9256 18.3999 12.6001V3.0001C19.0626 3.0001 19.5999 2.46284 19.5999 1.8001C19.5999 1.13736 19.0626 0.600098 18.3999 0.600098H1.5999ZM15.6484 6.24863C16.1171 5.78 16.1171 5.0202 15.6484 4.55157C15.1798 4.08294 14.42 4.08294 13.9514 4.55157L9.9999 8.50304L8.44843 6.95157C7.9798 6.48294 7.22 6.48294 6.75137 6.95157L4.35137 9.35157C3.88274 9.8202 3.88274 10.58 4.35137 11.0486C4.82 11.5173 5.5798 11.5173 6.04843 11.0486L7.5999 9.49715L9.15137 11.0486C9.62 11.5173 10.3798 11.5173 10.8484 11.0486L15.6484 6.24863Z" fill="white"/>
</svg>
