<svg width="20" height="12" viewBox="0 0 20 12" fill="none" xmlns="http://www.w3.org/2000/svg">
<path fill-rule="evenodd" clip-rule="evenodd" d="M12.3999 2.4C11.7372 2.4 11.1999 1.86274 11.1999 1.2C11.1999 0.537258 11.7372 0 12.3999 0H18.3999C19.0626 0 19.5999 0.537258 19.5999 1.2V7.2C19.5999 7.86274 19.0626 8.4 18.3999 8.4C17.7372 8.4 17.1999 7.86274 17.1999 7.2V4.09706L12.0484 9.24853C11.5798 9.71716 10.82 9.71716 10.3514 9.24853L7.5999 6.49706L2.44843 11.6485C1.9798 12.1172 1.22 12.1172 0.751374 11.6485C0.282745 11.1799 0.282745 10.4201 0.751374 9.95147L6.75137 3.95147C7.22 3.48284 7.9798 3.48284 8.44843 3.95147L11.1999 6.70294L15.5028 2.4H12.3999Z" fill="white"/>
</svg>
