<svg width="128" height="128" viewBox="0 0 128 128" fill="none" xmlns="http://www.w3.org/2000/svg">
<rect x="50.0283" y="80.4426" width="3.85427" height="41.4334" transform="rotate(-135 50.0283 80.4426)" fill="#161A34"/>
<rect x="52.8916" y="51.9632" width="3.85427" height="26.9799" transform="rotate(-90 52.8916 51.9632)" fill="#161A34"/>
<rect x="79.8911" y="75.1087" width="3.85427" height="26.9799" transform="rotate(180 79.8911 75.1087)" fill="#161A34"/>
<path d="M71.4263 8.06448L70.8526 11.2714C70.7052 11.4077 70.4878 11.5474 70.2003 11.6904C69.9174 11.8303 69.5562 11.9304 69.1168 11.9907C68.6775 12.051 68.1483 12.0257 67.5292 11.915C67.0024 11.8208 66.5356 11.646 66.1289 11.3907C65.7229 11.1316 65.3913 10.8005 65.134 10.3973C64.8806 9.99483 64.7117 9.5301 64.6274 9.00311C64.5438 8.47228 64.5591 7.88772 64.6733 7.24941L64.7775 6.66686C64.8909 6.0324 65.0709 5.48125 65.3173 5.01342C65.5682 4.54243 65.8745 4.16072 66.2364 3.8683C66.5982 3.57588 67.0064 3.37905 67.461 3.27783C67.9202 3.17345 68.4189 3.16941 68.9573 3.2657C69.6456 3.38882 70.194 3.60597 70.6026 3.91716C71.0158 4.22518 71.3093 4.60308 71.4832 5.05085C71.6571 5.49862 71.7302 5.9879 71.7028 6.5187L70.2839 6.2649C70.29 5.96441 70.2464 5.68677 70.1531 5.43198C70.0636 5.17789 69.9075 4.96346 69.6848 4.7887C69.4667 4.61079 69.1634 4.4871 68.775 4.41763C68.4405 4.35779 68.135 4.36862 67.8585 4.45012C67.582 4.53161 67.3372 4.68028 67.124 4.89611C66.9146 5.11263 66.736 5.3902 66.5881 5.72883C66.4402 6.06746 66.3257 6.46364 66.2446 6.91738L66.1383 7.51146C66.0558 7.97289 66.0306 8.391 66.0627 8.7658C66.0987 9.14129 66.187 9.46859 66.3276 9.7477C66.472 10.0275 66.6674 10.2549 66.9139 10.4299C67.161 10.6011 67.4538 10.717 67.7922 10.7775C68.1229 10.8367 68.3988 10.8583 68.6199 10.8422C68.8417 10.8224 69.021 10.785 69.1578 10.7301C69.2991 10.6721 69.4109 10.6127 69.4932 10.552L69.7914 8.88513L68.0437 8.57253L68.2367 7.49394L71.4263 8.06448Z" fill="#161A34"/>
<path d="M78.9624 12.9371L78.5983 14.0448L74.2955 12.6304L74.6596 11.5227L78.9624 12.9371ZM77.3548 4.65571L74.6907 12.7603L73.2936 12.3011L75.9577 4.19645L77.3548 4.65571ZM79.5877 9.13973L79.2291 10.2307L75.4885 9.00115L75.8471 7.91014L79.5877 9.13973ZM81.2346 5.93104L80.8686 7.04431L76.5937 5.63907L76.9596 4.5258L81.2346 5.93104Z" fill="#161A34"/>
<path d="M87.7122 8.16684L83.8988 15.7984L82.5937 15.1462L86.4071 7.51468L87.7122 8.16684ZM90.1076 9.36377L89.5837 10.4121L83.5089 7.37652L84.0327 6.32823L90.1076 9.36377Z" fill="#161A34"/>
<path d="M98.2354 14.0078L93.1167 20.8329L91.9401 19.9505L97.0588 13.1254L98.2354 14.0078Z" fill="#161A34"/>
<path d="M106.491 20.8175L100.265 26.6496L99.2592 25.5762L101.104 18.6059L96.6436 22.7837L95.6382 21.7103L101.865 15.8782L102.87 16.9516L101.025 23.9385L105.494 19.7527L106.491 20.8175Z" fill="#161A34"/>
<path d="M114.795 30.8638L107.386 35.0943L106.663 33.8273L114.071 29.5968L114.795 30.8638ZM116.123 33.1891L115.105 33.7702L111.737 27.8729L112.755 27.2918L116.123 33.1891Z" fill="#161A34"/>
<path d="M116.491 42.9229L116.049 43.0793C115.442 43.2943 114.869 43.4081 114.33 43.4205C113.792 43.4329 113.301 43.3517 112.858 43.177C112.416 43.006 112.033 42.7481 111.708 42.4032C111.386 42.057 111.138 41.6354 110.962 41.1382C110.787 40.6448 110.716 40.1624 110.748 39.6911C110.785 39.2222 110.92 38.7786 111.153 38.3605C111.386 37.9423 111.715 37.565 112.139 37.2285C112.564 36.8957 113.08 36.6218 113.688 36.4068L114.13 36.2504C114.737 36.0353 115.309 35.9241 115.845 35.9167C116.385 35.908 116.876 35.991 117.319 36.1656C117.767 36.3427 118.151 36.6025 118.471 36.945C118.797 37.2899 119.046 37.709 119.221 38.2025C119.397 38.6996 119.467 39.1845 119.431 39.6571C119.399 40.1284 119.264 40.5719 119.026 40.9877C118.791 41.4022 118.461 41.774 118.035 42.1031C117.613 42.4346 117.099 42.7078 116.491 42.9229ZM115.559 41.6929L116.012 41.5326C116.461 41.3735 116.841 41.1892 117.152 40.9797C117.468 40.7724 117.712 40.5431 117.884 40.2916C118.062 40.0425 118.166 39.7755 118.198 39.4908C118.233 39.2047 118.197 38.9089 118.089 38.6033C117.981 38.2976 117.823 38.0466 117.617 37.8503C117.415 37.6526 117.165 37.5108 116.87 37.4248C116.579 37.3412 116.245 37.3165 115.868 37.3507C115.494 37.3835 115.082 37.4794 114.633 37.6384L114.18 37.7987C113.731 37.9577 113.349 38.1427 113.034 38.3536C112.719 38.5645 112.472 38.797 112.293 39.0511C112.118 39.3076 112.013 39.577 111.976 39.8594C111.943 40.1404 111.98 40.4338 112.088 40.7394C112.198 41.0487 112.354 41.3022 112.557 41.4999C112.763 41.6962 113.013 41.8355 113.307 41.9178C113.605 41.9988 113.942 42.0204 114.319 41.9826C114.696 41.9484 115.109 41.8519 115.559 41.6929Z" fill="#161A34"/>
<path d="M122.995 49.9824L123.253 51.4243L117.64 52.4282C117.002 52.5423 116.443 52.4995 115.963 52.2997C115.483 52.0999 115.09 51.7812 114.786 51.3436C114.486 50.9091 114.284 50.3997 114.179 49.8152C114.071 49.2115 114.082 48.6539 114.213 48.1424C114.348 47.6303 114.606 47.1991 114.988 46.8491C115.37 46.5029 115.881 46.2727 116.519 46.1585L122.131 45.1547L122.389 46.5967L116.777 47.6005C116.373 47.6727 116.053 47.8014 115.816 47.9866C115.583 48.1711 115.428 48.4013 115.35 48.6771C115.273 48.9529 115.265 49.2638 115.327 49.6099C115.389 49.9559 115.504 50.2429 115.671 50.4709C115.84 50.7027 116.065 50.8647 116.348 50.9571C116.634 51.0487 116.979 51.0584 117.383 50.9862L122.995 49.9824Z" fill="#161A34"/>
<path d="M118.707 59.8258L118.736 61.2904C118.176 61.2543 117.675 61.1077 117.233 60.8506C116.794 60.5934 116.445 60.227 116.186 59.7514C115.927 59.2759 115.79 58.6944 115.777 58.007C115.767 57.4798 115.852 57.0035 116.031 56.578C116.214 56.1526 116.477 55.7861 116.818 55.4787C117.164 55.1712 117.583 54.9325 118.076 54.7628C118.569 54.5971 119.122 54.5082 119.736 54.4964L120.444 54.4827C121.058 54.4709 121.614 54.5402 122.113 54.6908C122.612 54.8453 123.04 55.0714 123.398 55.3692C123.759 55.667 124.037 56.0269 124.233 56.449C124.429 56.875 124.532 57.3555 124.542 57.8906C124.555 58.5702 124.441 59.1467 124.2 59.6202C123.96 60.0937 123.621 60.4635 123.185 60.7298C122.748 61 122.246 61.1699 121.677 61.2395L121.648 59.7749C122.015 59.7288 122.327 59.6368 122.586 59.499C122.846 59.365 123.041 59.1698 123.173 58.9133C123.309 58.6567 123.373 58.3234 123.365 57.9133C123.358 57.5775 123.29 57.2857 123.16 57.0382C123.03 56.7907 122.843 56.5853 122.597 56.422C122.352 56.2587 122.051 56.1376 121.694 56.0585C121.341 55.9833 120.938 55.95 120.485 55.9588L119.764 55.9727C119.334 55.981 118.945 56.0256 118.594 56.1066C118.248 56.1914 117.952 56.3144 117.705 56.4754C117.458 56.6404 117.269 56.8472 117.137 57.0959C117.005 57.3446 116.942 57.6407 116.949 57.9844C116.957 58.4023 117.03 58.7389 117.168 58.9941C117.305 59.2532 117.503 59.4467 117.759 59.5746C118.019 59.7063 118.335 59.79 118.707 59.8258Z" fill="#161A34"/>
<path d="M120.783 69.8081L119.632 69.6203L120.361 65.1501L121.512 65.3378L120.783 69.8081ZM124.97 66.2699L116.55 64.8965L116.787 63.445L125.207 64.8183L124.97 66.2699ZM124.117 71.4977L115.697 70.1243L115.933 68.6785L124.353 70.0519L124.117 71.4977Z" fill="#161A34"/>
<path d="M108.782 98.3122L106.286 96.2181C106.242 96.0224 106.229 95.7643 106.248 95.4438C106.267 95.1287 106.36 94.7657 106.527 94.3546C106.693 93.9436 106.979 93.4972 107.383 93.0154C107.727 92.6055 108.111 92.2877 108.535 92.0621C108.962 91.839 109.414 91.7162 109.892 91.6938C110.367 91.6745 110.854 91.7594 111.353 91.9487C111.855 92.1404 112.354 92.4447 112.851 92.8615L113.304 93.2419C113.798 93.6562 114.186 94.0867 114.47 94.5333C114.753 94.9854 114.932 95.4411 115.005 95.9005C115.078 96.3599 115.046 96.8119 114.907 97.2566C114.769 97.7068 114.525 98.1413 114.173 98.5602C113.724 99.0958 113.262 99.4634 112.789 99.6628C112.316 99.8678 111.842 99.9342 111.367 99.862C110.892 99.7899 110.432 99.6098 109.985 99.3216L110.911 98.2175C111.169 98.3724 111.431 98.4728 111.699 98.5188C111.964 98.5677 112.227 98.5391 112.49 98.4329C112.753 98.3323 113.011 98.1309 113.265 97.8287C113.483 97.5683 113.626 97.298 113.693 97.0176C113.76 96.7373 113.753 96.4509 113.672 96.1586C113.588 95.8692 113.436 95.5761 113.216 95.2792C112.996 94.9824 112.71 94.6858 112.357 94.3895L111.894 94.0016C111.535 93.7003 111.185 93.4703 110.844 93.3116C110.501 93.1558 110.173 93.0695 109.861 93.0524C109.546 93.0383 109.252 93.0946 108.977 93.2212C108.706 93.3503 108.459 93.5465 108.238 93.8098C108.023 94.0672 107.866 94.2957 107.77 94.4954C107.677 94.6977 107.62 94.8718 107.6 95.0177C107.58 95.1692 107.575 95.2957 107.587 95.3973L108.884 96.4858L110.025 95.1258L110.865 95.8301L108.782 98.3122Z" fill="#161A34"/>
<path d="M100.528 102.657L99.7492 101.788L103.122 98.7649L103.9 99.6331L100.528 102.657ZM108.507 105.395L102.812 99.0426L103.907 98.0609L109.602 104.413L108.507 105.395ZM103.507 105.093L102.74 104.238L105.672 101.609L106.438 102.465L103.507 105.093ZM105.466 108.121L104.684 107.248L108.034 104.245L108.817 105.117L105.466 108.121Z" fill="#161A34"/>
<path d="M100.455 112.45L95.7179 105.355L96.9313 104.545L101.668 111.64L100.455 112.45ZM98.2278 113.937L97.5771 112.963L103.225 109.192L103.876 110.166L98.2278 113.937Z" fill="#161A34"/>
<path d="M90.2699 118.605L86.8879 110.773L88.2382 110.19L91.6201 118.022L90.2699 118.605Z" fill="#161A34"/>
<path d="M79.9486 122.455L78.0317 114.142L79.4648 113.811L84.5663 118.906L83.1931 112.951L84.6262 112.621L86.5431 120.934L85.11 121.264L79.9945 116.16L81.3703 122.127L79.9486 122.455Z" fill="#161A34"/>
<path d="M67.1002 124.557L67.1661 116.026L68.625 116.037L68.5592 124.568L67.1002 124.557ZM64.4226 124.536L64.4316 123.364L71.2225 123.417L71.2134 124.588L64.4226 124.536Z" fill="#161A34"/>
<path d="M55.7725 119.95L55.8586 119.489C55.9769 118.856 56.1656 118.303 56.4247 117.831C56.6838 117.359 56.9999 116.974 57.3731 116.679C57.7424 116.382 58.1577 116.179 58.6191 116.071C59.0797 115.966 59.5693 115.962 60.0876 116.059C60.6022 116.155 61.0553 116.335 61.4471 116.599C61.8344 116.866 62.1505 117.205 62.3956 117.617C62.6406 118.028 62.8026 118.501 62.8814 119.037C62.9564 119.571 62.9347 120.155 62.8164 120.789L62.7303 121.25C62.612 121.883 62.4217 122.434 62.1595 122.901C61.8966 123.373 61.5786 123.757 61.2054 124.053C60.8277 124.352 60.4104 124.554 59.9536 124.659C59.4923 124.768 59.0043 124.774 58.4898 124.678C57.9714 124.581 57.5167 124.399 57.1256 124.131C56.7338 123.867 56.4176 123.528 56.1771 123.113C55.9359 122.703 55.7798 122.23 55.7086 121.697C55.6329 121.166 55.6542 120.584 55.7725 119.95ZM57.3043 119.759L57.2161 120.232C57.1286 120.7 57.0976 121.122 57.123 121.496C57.1439 121.873 57.2201 122.199 57.3515 122.474C57.4784 122.752 57.6571 122.976 57.8876 123.147C58.1174 123.321 58.3916 123.438 58.7103 123.497C59.029 123.557 59.325 123.546 59.5983 123.466C59.8708 123.39 60.1183 123.245 60.3409 123.033C60.5588 122.823 60.7476 122.546 60.9072 122.203C61.066 121.863 61.1892 121.459 61.2767 120.99L61.3649 120.518C61.4524 120.049 61.4838 119.626 61.4591 119.248C61.4343 118.87 61.357 118.539 61.2269 118.257C61.0924 117.977 60.9121 117.751 60.6862 117.578C60.4596 117.408 60.1869 117.294 59.8682 117.234C59.5456 117.174 59.2481 117.182 58.9755 117.258C58.7023 117.338 58.4563 117.485 58.2376 117.698C58.0182 117.916 57.8306 118.197 57.6749 118.541C57.5153 118.885 57.3918 119.291 57.3043 119.759Z" fill="#161A34"/>
<path d="M46.5033 122.059L45.1261 121.56L47.0687 116.2C47.2897 115.59 47.6069 115.127 48.0204 114.812C48.4339 114.496 48.9062 114.317 49.4375 114.272C49.9637 114.23 50.506 114.311 51.0642 114.513C51.6408 114.722 52.1177 115.011 52.4948 115.38C52.8707 115.753 53.1145 116.193 53.2261 116.699C53.3341 117.203 53.2777 117.76 53.0567 118.37L51.1141 123.73L49.7369 123.231L51.6795 117.871C51.8193 117.485 51.8683 117.143 51.8266 116.846C51.7836 116.552 51.6622 116.302 51.4624 116.097C51.2626 115.891 50.9974 115.729 50.6669 115.609C50.3364 115.489 50.0305 115.445 49.7491 115.476C49.4642 115.506 49.211 115.619 48.9896 115.818C48.7669 116.019 48.5856 116.313 48.4459 116.699L46.5033 122.059Z" fill="#161A34"/>
<path d="M40.0335 113.362L38.7535 112.649C39.066 112.184 39.4448 111.825 39.8896 111.572C40.3325 111.322 40.8247 111.205 41.3661 111.22C41.9075 111.235 42.4786 111.41 43.0794 111.744C43.5402 112.001 43.9093 112.313 44.1868 112.682C44.4623 113.055 44.647 113.466 44.7408 113.916C44.8327 114.369 44.828 114.852 44.7267 115.363C44.622 115.873 44.4206 116.395 44.1224 116.931L43.7776 117.551C43.4794 118.087 43.1398 118.532 42.7586 118.888C42.374 119.242 41.9631 119.498 41.5259 119.657C41.0868 119.82 40.6357 119.879 40.1725 119.836C39.7058 119.791 39.2387 119.638 38.771 119.378C38.1771 119.048 37.7361 118.659 37.4481 118.213C37.16 117.766 37.0107 117.288 37 116.777C36.986 116.264 37.092 115.744 37.3181 115.217L38.5981 115.929C38.4537 116.269 38.3759 116.586 38.3647 116.879C38.3501 117.17 38.4205 117.437 38.5759 117.68C38.7294 117.927 38.9853 118.15 39.3437 118.349C39.6373 118.512 39.9237 118.6 40.2029 118.612C40.4821 118.625 40.754 118.566 41.0185 118.436C41.2831 118.306 41.5393 118.107 41.7873 117.838C42.0299 117.571 42.2614 117.239 42.4817 116.843L42.8321 116.213C43.0411 115.838 43.1986 115.478 43.3047 115.135C43.4054 114.793 43.4483 114.475 43.4334 114.181C43.415 113.884 43.3315 113.617 43.1829 113.378C43.0344 113.138 42.8099 112.935 42.5095 112.768C42.1443 112.565 41.8168 112.459 41.5269 112.449C41.2336 112.438 40.9672 112.511 40.7277 112.668C40.4829 112.827 40.2515 113.058 40.0335 113.362Z" fill="#161A34"/>
<path d="M30.5682 110.262L31.3079 109.361L34.8091 112.234L34.0694 113.136L30.5682 110.262ZM31.5285 115.659L36.9407 109.064L38.0776 109.997L32.6654 116.592L31.5285 115.659ZM27.434 112.299L32.8462 105.704L33.9786 106.633L28.5663 113.228L27.434 112.299Z" fill="#161A34"/>
<path d="M11.9363 85.7652L14.995 84.6437C15.187 84.7022 15.4173 84.8196 15.6857 84.9957C15.9492 85.1696 16.2177 85.431 16.4913 85.78C16.7649 86.129 17.01 86.5988 17.2265 87.1892C17.4107 87.6917 17.4951 88.1829 17.4797 88.6628C17.4607 89.1441 17.3419 89.5975 17.1235 90.0229C16.9037 90.4447 16.5875 90.8248 16.1749 91.1633C15.7586 91.5032 15.2461 91.7848 14.6373 92.008L14.0817 92.2117C13.4766 92.4336 12.9099 92.5561 12.3816 92.5792C11.8484 92.6 11.3643 92.5279 10.9293 92.3629C10.4943 92.1978 10.1185 91.9445 9.8019 91.603C9.48026 91.2591 9.2253 90.8304 9.03703 90.317C8.79632 89.6605 8.70731 89.0774 8.77002 88.5676C8.82771 88.0555 9.00607 87.6115 9.30509 87.2356C9.6041 86.8596 9.98974 86.5497 10.462 86.3058L10.9582 87.6591C10.6956 87.8053 10.4778 87.983 10.3049 88.192C10.1305 88.3974 10.0241 88.6403 9.98543 88.9208C9.94179 89.1989 9.98788 89.5231 10.1237 89.8936C10.2407 90.2126 10.4041 90.471 10.6139 90.6687C10.8237 90.8664 11.0755 91.0028 11.3694 91.0781C11.6619 91.1498 11.9917 91.1641 12.3587 91.121C12.7257 91.078 13.1256 90.9771 13.5583 90.8185L14.1249 90.6107C14.565 90.4493 14.9388 90.2602 15.2463 90.0435C15.5524 89.8231 15.7905 89.5818 15.9607 89.3197C16.1295 89.0539 16.2274 88.7705 16.2543 88.4694C16.2775 88.1696 16.2299 87.8584 16.1116 87.5357C15.9959 87.2203 15.8754 86.9711 15.7501 86.7882C15.6212 86.6067 15.4985 86.4707 15.3821 86.3802C15.2607 86.2874 15.1531 86.2208 15.0592 86.1803L13.4693 86.7633L14.0805 88.4302L13.0518 88.8074L11.9363 85.7652Z" fill="#161A34"/>
<path d="M12.2871 76.4906L13.4281 76.2503L14.3615 80.6824L13.2205 80.9226L12.2871 76.4906ZM5.92762 82.0334L14.2757 80.2753L14.5788 81.7144L6.2307 83.4725L5.92762 82.0334ZM8.68794 77.8533L9.81172 77.6167L10.6232 81.4696L9.49938 81.7063L8.68794 77.8533ZM5.08599 78.0371L6.23271 77.7956L7.16007 82.199L6.01335 82.4405L5.08599 78.0371Z" fill="#161A34"/>
<path d="M3.80926 71.4022L12.3243 70.8759L12.4143 72.3321L3.89926 72.8584L3.80926 71.4022ZM3.64406 68.7296L4.8137 68.6573L5.23266 75.4354L4.06302 75.5077L3.64406 68.7296Z" fill="#161A34"/>
<path d="M3.57772 59.513L12.052 60.4973L11.8823 61.9582L3.40804 60.9739L3.57772 59.513Z" fill="#161A34"/>
<path d="M5.37046 48.6979L13.5333 51.1778L13.1058 52.585L6.14622 54.4695L11.9937 56.2459L11.5662 57.6531L3.40329 55.1733L3.83078 53.7661L10.805 51.8737L4.94637 50.0939L5.37046 48.6979Z" fill="#161A34"/>
<path d="M9.87815 36.6169L17.2394 40.929L16.5019 42.1879L9.14071 37.8758L9.87815 36.6169ZM11.2316 34.3064L12.2428 34.8988L8.81025 40.7584L7.79909 40.1661L11.2316 34.3064Z" fill="#161A34"/>
<path d="M19.5651 29.02L19.9209 29.3252C20.41 29.7449 20.7941 30.1851 21.0731 30.6457C21.3521 31.1064 21.5263 31.5723 21.5956 32.0435C21.6674 32.5117 21.6348 32.9727 21.4977 33.4264C21.3577 33.8776 21.116 34.3033 20.7726 34.7035C20.4318 35.1008 20.0491 35.4029 19.6245 35.6099C19.1994 35.8114 18.7475 35.9152 18.2687 35.9214C17.7899 35.9275 17.2991 35.8307 16.7963 35.6309C16.296 35.4282 15.8013 35.117 15.3121 34.6973L14.9563 34.3921C14.4671 33.9724 14.0858 33.532 13.8123 33.0709C13.5358 32.6073 13.363 32.1399 13.2937 31.6687C13.224 31.192 13.2579 30.7296 13.3954 30.2814C13.5324 29.8277 13.7713 29.4022 14.1122 29.0049C14.4555 28.6047 14.841 28.3023 15.2686 28.0979C15.6932 27.8909 16.1452 27.787 16.6244 27.7864C17.1006 27.7832 17.5876 27.8845 18.0853 28.0902C18.5827 28.2904 19.0759 28.6003 19.5651 29.02ZM18.9632 30.4414L18.5986 30.1286C18.2369 29.8183 17.8877 29.5804 17.5509 29.4151C17.2137 29.2442 16.8932 29.1468 16.5894 29.1229C16.2853 29.0936 16.0018 29.136 15.739 29.2503C15.4733 29.362 15.2349 29.5409 15.0238 29.787C14.8127 30.0331 14.6734 30.2944 14.6059 30.5711C14.5355 30.8452 14.5366 31.1318 14.6094 31.431C14.6817 31.7246 14.8267 32.0266 15.0443 32.3368C15.259 32.6445 15.5472 32.9535 15.9089 33.2638L16.2735 33.5766C16.6352 33.8869 16.9859 34.1261 17.3257 34.294C17.6654 34.4619 17.9901 34.5604 18.2998 34.5893C18.6091 34.6127 18.8953 34.5701 19.1585 34.4613C19.4187 34.35 19.6543 34.1713 19.8654 33.9252C20.0791 33.6762 20.2211 33.4146 20.2916 33.1405C20.3591 32.8639 20.3552 32.5775 20.2799 32.2813C20.2016 31.9825 20.0524 31.6795 19.8322 31.3723C19.6146 31.062 19.3249 30.7517 18.9632 30.4414Z" fill="#161A34"/>
<path d="M22.368 19.9304L23.4866 18.9847L27.1672 23.3386C27.5859 23.8338 27.829 24.3392 27.8967 24.8549C27.9643 25.3706 27.8851 25.8698 27.6589 26.3526C27.4332 26.8298 27.0936 27.2601 26.6402 27.6434C26.1718 28.0393 25.6836 28.3088 25.1754 28.452C24.6648 28.5921 24.1623 28.5847 23.668 28.4296C23.1768 28.272 22.7218 27.9456 22.3032 27.4504L18.6226 23.0965L19.7413 22.1508L23.4219 26.5047C23.6867 26.818 23.9585 27.0306 24.2374 27.1427C24.5138 27.2518 24.7907 27.2708 25.0683 27.1998C25.3459 27.1289 25.6189 26.9799 25.8874 26.7529C26.1559 26.526 26.3467 26.2828 26.46 26.0234C26.5761 25.7615 26.6035 25.4852 26.5419 25.1946C26.4778 24.9009 26.3134 24.5975 26.0486 24.2843L22.368 19.9304Z" fill="#161A34"/>
<path d="M33.182 18.602L34.4377 17.8477C34.6851 18.3507 34.8076 18.8581 34.8052 19.3699C34.8008 19.8784 34.657 20.3635 34.3739 20.8252C34.0908 21.2869 33.6545 21.6948 33.0652 22.0488C32.6131 22.3204 32.158 22.4844 31.6998 22.5409C31.2396 22.5941 30.7911 22.5491 30.3542 22.4059C29.9153 22.2595 29.4995 22.0148 29.1068 21.672C28.7174 21.3272 28.3648 20.892 28.049 20.3663L27.6839 19.7585C27.3681 19.2328 27.1511 18.716 27.0329 18.2083C26.9181 17.6986 26.9008 17.2146 26.9809 16.7563C27.0591 16.2947 27.2323 15.8739 27.5008 15.4939C27.7726 15.1119 28.1378 14.7831 28.5966 14.5075C29.1792 14.1575 29.7358 13.969 30.2664 13.9419C30.7969 13.9149 31.2864 14.0241 31.7347 14.2698C32.1863 14.5134 32.5841 14.8645 32.928 15.3232L31.6723 16.0776C31.4497 15.7829 31.2142 15.5576 30.9655 15.4016C30.7203 15.2437 30.4536 15.1715 30.1655 15.185C29.8755 15.1952 29.5546 15.3059 29.203 15.5171C28.9151 15.6901 28.6961 15.8946 28.5462 16.1304C28.3962 16.3663 28.3116 16.6313 28.2924 16.9254C28.2731 17.2195 28.3181 17.5411 28.4275 17.89C28.5382 18.2337 28.7103 18.5997 28.9436 18.9881L29.3147 19.6059C29.536 19.9742 29.7689 20.29 30.0136 20.5531C30.2596 20.8109 30.5139 21.0067 30.7766 21.1406C31.0426 21.2724 31.3163 21.3336 31.5977 21.324C31.879 21.3145 32.1671 21.2213 32.4617 21.0442C32.82 20.829 33.0755 20.5981 33.2281 20.3515C33.3841 20.1029 33.4536 19.8355 33.4367 19.5495C33.4211 19.2581 33.3362 18.9423 33.182 18.602Z" fill="#161A34"/>
<path d="M40.4697 11.9803L40.8835 13.0705L36.6489 14.6776L36.2351 13.5874L40.4697 11.9803ZM35.3108 10.1278L38.3378 18.104L36.9628 18.6258L33.9357 10.6496L35.3108 10.1278ZM40.263 8.24838L43.29 16.2246L41.9205 16.7443L38.8935 8.76813L40.263 8.24838Z" fill="#161A34"/>
<circle cx="54.5" cy="8.5" r="1.5" fill="#161A34"/>
<circle cx="116.5" cy="82.5" r="1.5" fill="#161A34"/>
<circle cx="21.5" cy="100.5" r="1.5" fill="#161A34"/>
</svg>
