<svg width="50" height="50" viewBox="0 0 50 50" fill="none" xmlns="http://www.w3.org/2000/svg">
<rect x="49.5" y="49.5" width="49" height="49" rx="24.5" transform="rotate(-180 49.5 49.5)" fill="white"/>
<rect x="49.5" y="49.5" width="49" height="49" rx="24.5" transform="rotate(-180 49.5 49.5)" stroke="#CED1D8"/>
<path fill-rule="evenodd" clip-rule="evenodd" d="M24.7366 31.0362C24.3851 31.3877 23.8153 31.3877 23.4638 31.0362L18.0638 25.6362C17.7123 25.2847 17.7123 24.7149 18.0638 24.3634L23.4638 18.9634C23.8153 18.6119 24.3851 18.6119 24.7366 18.9634C25.0881 19.3149 25.0881 19.8847 24.7366 20.2362L20.873 24.0998L31.3002 24.0998C31.7973 24.0998 32.2002 24.5027 32.2002 24.9998C32.2002 25.4969 31.7973 25.8998 31.3002 25.8998L20.873 25.8998L24.7366 29.7634C25.0881 30.1149 25.0881 30.6847 24.7366 31.0362Z" fill="#CED1D8"/>
</svg>
