<?xml version="1.0" standalone="no"?>
<!DOCTYPE svg PUBLIC "-//W3C//DTD SVG 20010904//EN"
 "http://www.w3.org/TR/2001/REC-SVG-20010904/DTD/svg10.dtd">
<svg version="1.0" xmlns="http://www.w3.org/2000/svg"
 width="107.000000pt" height="107.000000pt" viewBox="0 0 107.000000 107.000000"
 preserveAspectRatio="xMidYMid meet">

<g transform="translate(0.000000,107.000000) scale(0.100000,-0.100000)"
fill="#000000" stroke="none">
<path d="M0 535 l0 -535 535 0 535 0 0 535 0 535 -535 0 -535 0 0 -535z m497
466 c10 -16 39 -51 64 -78 25 -26 58 -66 72 -89 45 -67 56 -134 22 -134 -20 0
-7 -130 16 -155 12 -14 18 -34 16 -62 -2 -51 5 -60 38 -45 34 16 39 2 25 -74
-14 -74 -9 -99 20 -91 26 7 25 0 -10 -75 -16 -34 -30 -70 -30 -79 0 -28 -47
-60 -124 -85 -184 -58 -366 -7 -366 102 0 18 -11 56 -24 85 -14 29 -30 84 -37
123 -6 39 -18 86 -26 104 -9 22 -12 47 -7 77 l6 45 22 -43 c13 -26 35 -49 58
-62 35 -18 38 -19 71 -3 34 16 36 19 41 85 16 167 44 258 77 248 21 -7 59 27
59 53 0 10 7 27 15 39 14 20 14 27 -5 80 -11 31 -20 59 -20 60 0 10 10 -1 27
-26z m-312 -264 c-8 -30 -45 -69 -45 -46 0 18 39 83 46 76 3 -2 2 -16 -1 -30z"/>
<path d="M210 386 c0 -2 7 -6 15 -10 8 -3 15 -1 15 4 0 6 -7 10 -15 10 -8 0
-15 -2 -15 -4z"/>
</g>
</svg>
