<svg width="20" height="20" viewBox="0 0 20 20" fill="none" xmlns="http://www.w3.org/2000/svg">
<path fill-rule="evenodd" clip-rule="evenodd" d="M10.0001 19.5999C4.69816 19.5999 0.400097 15.3018 0.400097 9.9999C0.400097 4.69797 4.69816 0.399902 10.0001 0.399902C15.302 0.399902 19.6001 4.69797 19.6001 9.9999C19.6001 15.3018 15.302 19.5999 10.0001 19.5999ZM13.6001 8.7999C12.9374 8.7999 12.4001 8.26264 12.4001 7.5999C12.4001 6.93716 12.9374 6.3999 13.6001 6.3999C14.2628 6.3999 14.8001 6.93716 14.8001 7.5999C14.8001 8.26264 14.2628 8.7999 13.6001 8.7999ZM5.2001 7.5999C5.2001 8.26264 5.73736 8.7999 6.4001 8.7999C7.06284 8.7999 7.6001 8.26264 7.6001 7.5999C7.6001 6.93716 7.06284 6.3999 6.4001 6.3999C5.73736 6.3999 5.2001 6.93716 5.2001 7.5999ZM5.75746 14.2424C5.28883 13.7738 5.28883 13.014 5.75746 12.5454C6.22609 12.0767 6.98588 12.0767 7.45451 12.5454C8.8604 13.9513 11.1398 13.9513 12.5457 12.5454C13.0143 12.0767 13.7741 12.0767 14.2427 12.5454C14.7114 13.014 14.7114 13.7738 14.2427 14.2424C11.8996 16.5856 8.1006 16.5856 5.75746 14.2424Z" fill="white"/>
</svg>
