<svg width="28" height="34" viewBox="0 0 28 34" fill="none" xmlns="http://www.w3.org/2000/svg">
<path d="M10.0608 19.2727C9.47504 18.6869 8.52529 18.6869 7.9395 19.2727C7.35372 19.8585 7.35372 20.8082 7.9395 21.394L10.0608 19.2727ZM12.3335 23.6667L11.2728 24.7273C11.8586 25.3131 12.8084 25.3131 13.3942 24.7273L12.3335 23.6667ZM20.0608 18.0607C20.6466 17.4749 20.6466 16.5251 20.0608 15.9393C19.475 15.3536 18.5253 15.3536 17.9395 15.9393L20.0608 18.0607ZM24.1668 8.66667V28.6667H27.1668V8.66667H24.1668ZM22.3335 30.5H5.66683V33.5H22.3335V30.5ZM3.8335 28.6667V8.66667H0.833496V28.6667H3.8335ZM5.66683 6.83333H9.00016V3.83333H5.66683V6.83333ZM19.0002 6.83333H22.3335V3.83333H19.0002V6.83333ZM5.66683 30.5C4.65431 30.5 3.8335 29.6792 3.8335 28.6667H0.833496C0.833496 31.336 2.99745 33.5 5.66683 33.5V30.5ZM24.1668 28.6667C24.1668 29.6792 23.346 30.5 22.3335 30.5V33.5C25.0029 33.5 27.1668 31.336 27.1668 28.6667H24.1668ZM27.1668 8.66667C27.1668 5.99729 25.0029 3.83333 22.3335 3.83333V6.83333C23.346 6.83333 24.1668 7.65414 24.1668 8.66667H27.1668ZM3.8335 8.66667C3.8335 7.65414 4.65431 6.83333 5.66683 6.83333V3.83333C2.99745 3.83333 0.833496 5.99729 0.833496 8.66667H3.8335ZM7.9395 21.394L11.2728 24.7273L13.3942 22.606L10.0608 19.2727L7.9395 21.394ZM13.3942 24.7273L20.0608 18.0607L17.9395 15.9393L11.2728 22.606L13.3942 24.7273ZM12.3335 3.5H15.6668V0.5H12.3335V3.5ZM15.6668 7.16667H12.3335V10.1667H15.6668V7.16667ZM12.3335 7.16667C11.321 7.16667 10.5002 6.34586 10.5002 5.33333H7.50016C7.50016 8.00271 9.66412 10.1667 12.3335 10.1667V7.16667ZM17.5002 5.33333C17.5002 6.34586 16.6794 7.16667 15.6668 7.16667V10.1667C18.3362 10.1667 20.5002 8.00271 20.5002 5.33333H17.5002ZM15.6668 3.5C16.6794 3.5 17.5002 4.32081 17.5002 5.33333H20.5002C20.5002 2.66396 18.3362 0.5 15.6668 0.5V3.5ZM12.3335 0.5C9.66412 0.5 7.50016 2.66396 7.50016 5.33333H10.5002C10.5002 4.32081 11.321 3.5 12.3335 3.5V0.5Z" fill="white"/>
</svg>
