<svg width="16" height="14" viewBox="0 0 16 14" fill="none" xmlns="http://www.w3.org/2000/svg">
<path fill-rule="evenodd" clip-rule="evenodd" d="M7.5208 4.00534L7.55438 4.55898L6.99479 4.49119C4.95791 4.23132 3.17843 3.35002 1.66756 1.86989L0.928908 1.13547L0.73865 1.67781C0.33575 2.88677 0.593158 4.16352 1.43253 5.02223C1.8802 5.49677 1.77948 5.56456 1.00725 5.28209C0.73865 5.19171 0.503625 5.12391 0.481242 5.15781C0.4029 5.2369 0.6715 6.26508 0.884142 6.67183C1.17513 7.23677 1.76828 7.79041 2.4174 8.11807L2.96579 8.37794L2.31668 8.38924C1.68994 8.38924 1.66756 8.40054 1.73471 8.63781C1.95854 9.37222 2.84268 10.1518 3.82755 10.4908L4.52143 10.7281L3.91708 11.0896C3.02175 11.6094 1.96973 11.9031 0.917717 11.9257C0.414092 11.937 0 11.9822 0 12.0161C0 12.1291 1.36538 12.7618 2.15999 13.0104C4.54382 13.7448 7.37531 13.4285 9.50173 12.1743C11.0126 11.2817 12.5235 9.50781 13.2286 7.79041C13.6091 6.87521 13.9896 5.203 13.9896 4.4008C13.9896 3.88106 14.0232 3.81326 14.6499 3.19184C15.0192 2.83028 15.3662 2.43482 15.4333 2.32184C15.5452 2.10716 15.534 2.10716 14.9633 2.29924C14.012 2.6382 13.8777 2.59301 14.3477 2.08456C14.6947 1.72301 15.1088 1.06768 15.1088 0.875603C15.1088 0.841707 14.9409 0.898201 14.7506 0.999889C14.5492 1.11288 14.1015 1.28236 13.7658 1.38404L13.1614 1.57612L12.613 1.20327C12.3108 0.999889 11.8856 0.773915 11.6617 0.706123C11.0909 0.547941 10.218 0.570539 9.70318 0.751318C8.30422 1.25976 7.42008 2.57041 7.5208 4.00534Z" fill="#1D1E25"/>
</svg>
